<svg width="512" height="512" xmlns="http://www.w3.org/2000/svg">
  <defs>
    <linearGradient id="bg" x1="0%" y1="0%" x2="100%" y2="100%">
      <stop offset="0%" style="stop-color:#3b82f6;stop-opacity:1" />
      <stop offset="100%" style="stop-color:#8b5cf6;stop-opacity:1" />
    </linearGradient>
    <linearGradient id="icon" x1="0%" y1="0%" x2="100%" y2="100%">
      <stop offset="0%" style="stop-color:#ffffff;stop-opacity:1" />
      <stop offset="100%" style="stop-color:#f1f5f9;stop-opacity:1" />
    </linearGradient>
  </defs>
  
  <!-- Background -->
  <rect width="512" height="512" rx="128" fill="url(#bg)"/>
  
  <!-- Main icon group -->
  <g transform="translate(128, 128)">
    <!-- Camera body -->
    <rect x="64" y="80" width="128" height="96" rx="16" fill="url(#icon)" stroke="#e2e8f0" stroke-width="4"/>
    
    <!-- Camera lens -->
    <circle cx="128" cy="128" r="32" fill="#1e293b" stroke="#475569" stroke-width="3"/>
    <circle cx="128" cy="128" r="24" fill="#334155"/>
    <circle cx="128" cy="128" r="16" fill="#475569"/>
    
    <!-- Camera top -->
    <rect x="88" y="64" width="80" height="24" rx="12" fill="url(#icon)" stroke="#e2e8f0" stroke-width="3"/>
    
    <!-- Flash -->
    <rect x="104" y="48" width="48" height="16" rx="8" fill="#fbbf24" stroke="#f59e0b" stroke-width="2"/>
    
    <!-- Image frames -->
    <rect x="32" y="200" width="64" height="48" rx="8" fill="#10b981" stroke="#059669" stroke-width="2" opacity="0.8"/>
    <rect x="112" y="200" width="64" height="48" rx="8" fill="#3b82f6" stroke="#2563eb" stroke-width="2" opacity="0.8"/>
    <rect x="192" y="200" width="64" height="48" rx="8" fill="#8b5cf6" stroke="#7c3aed" stroke-width="2" opacity="0.8"/>
    
    <!-- Download arrow -->
    <g transform="translate(128, 280)">
      <path d="M 0 -16 L 8 -8 L 8 16 L -8 16 L -8 -8 Z" fill="#10b981"/>
      <rect x="-2" y="8" width="4" height="16" fill="#10b981"/>
    </g>
  </g>
  
  <!-- Decorative elements -->
  <circle cx="96" cy="96" r="16" fill="rgba(255,255,255,0.1)"/>
  <circle cx="416" cy="416" r="24" fill="rgba(255,255,255,0.1)"/>
  <circle cx="416" cy="96" r="20" fill="rgba(255,255,255,0.1)"/>
  <circle cx="96" cy="416" r="12" fill="rgba(255,255,255,0.1)"/>
</svg>
